<?xml version="1.0" encoding="UTF-8" standalone="no"?>
<svg
   id="Calque_2"
   viewBox="0 0 988 988"
   version="1.1"
   sodipodi:docname="logo.svg"
   inkscape:export-filename="logo_round.png"
   inkscape:export-xdpi="96"
   inkscape:export-ydpi="96"
   inkscape:version="1.4 (1:1.4+202410161351+e7c3feb100)"
   xmlns:inkscape="http://www.inkscape.org/namespaces/inkscape"
   xmlns:sodipodi="http://sodipodi.sourceforge.net/DTD/sodipodi-0.dtd"
   xmlns="http://www.w3.org/2000/svg"
   xmlns:svg="http://www.w3.org/2000/svg">
  <sodipodi:namedview
     id="namedview1"
     pagecolor="#ffffff"
     bordercolor="#000000"
     borderopacity="0.25"
     inkscape:showpageshadow="2"
     inkscape:pageopacity="0.0"
     inkscape:pagecheckerboard="0"
     inkscape:deskcolor="#d1d1d1"
     inkscape:zoom="0.58198381"
     inkscape:cx="462.21217"
     inkscape:cy="505.16869"
     inkscape:window-width="1455"
     inkscape:window-height="900"
     inkscape:window-x="147"
     inkscape:window-y="103"
     inkscape:window-maximized="0"
     inkscape:current-layer="Calque_2" />
  <defs
     id="defs1">
    <style
       id="style1">
      .cls-1 {
        fill: #fff;
      }
    </style>
  </defs>
  <g
     id="Calque_1-2-7"
     data-name="Calque_1">
    <circle
       class="cls-1"
       cx="494"
       cy="494"
       r="494"
       id="circle1"
       style="fill:#ffffff" />
    <path
       d="m 477,589 c -94,-5 -110,-97 -110,-202 0,-168 35,-219 133,-219 98,0 133,50 133,219 v 36 c -16,-6 -32,-11 -48,-13 v -23 c 0,-126 -14,-173 -85,-173 -71,0 -85,47 -85,173 0,51 8,154 76,157 6,11 0,34 -14,45 z m 92,122 c -19,-11 -38,-23 -53,-34 14,-12 24,-22 34,-35 14,10 28,19 43,28 92,53 141,64 176,3 36,-62 1,-98 -91,-151 -49,-28 -86,-45 -116,-45 -25,0 -45,11 -65,45 -14,-3 -29,-9 -38,-25 23,-42 60,-66 101,-66 47,0 99,25 142,50 128,76 156,129 106,215 -49,84 -110,90 -239,15 z m -137,0 C 302,784 242,780 193,696 143,610 170,555 299,481 c 19,-11 34,-19 50,-26 1,17 3,33 7,49 -11,5 -20,10 -33,18 -90,56 -127,89 -91,151 35,61 84,50 176,-3 66,-37 112,-82 112,-114 0,-8 -3,-15 -6,-19 7,-15 19,-27 32,-33 14,12 21,23 21,46 0,61 -68,123 -135,161 z m 62,277 C 767,988 988,767 988,494 988,221 767,0 494,0 221,0 0,221 0,494 0,767 221,988 494,988 Z"
       id="path1-5"
       style="fill:#000000" />
  </g>
  <g
     id="g2"
     data-name="Calque_1"
     inkscape:label="square"
     style="display:none">
    <rect
       style="font-variation-settings:'wght' 380;display:inline;fill:#000000;stroke-width:3.52252;stroke-linecap:round;stroke-linejoin:round;paint-order:stroke fill markers"
       id="rect2"
       width="988"
       height="988"
       x="0"
       y="0" />
    <path
       id="path2"
       style="display:inline;fill:#ffffff;stroke:none;stroke-width:1.30349"
       d="m 493.47673,105.95903 c 127.74262,0 173.36498,65.1748 173.36498,285.46565 v 46.92587 c -20.85593,-7.82099 -41.71188,-14.33848 -62.56781,-16.94546 v -29.98041 c 0,-164.24052 -18.24894,-225.50484 -110.79717,-225.50484 -92.54823,0 -110.79718,61.26432 -110.79718,225.50484 0,66.4783 10.42797,200.7384 99.06571,204.6489 7.82097,14.33845 0,44.31886 -18.24895,58.65732 -122.52863,-6.51748 -143.38458,-126.43913 -143.38458,-263.30622 0,-218.98736 45.62237,-285.46565 173.365,-285.46565 z m 78.20975,342.81948 c 61.26434,0 129.04613,32.5874 185.09646,65.17481 166.84751,99.0657 203.3454,168.151 138.1706,280.25167 -63.87132,109.49368 -143.38458,117.31464 -311.53558,19.55243 -24.76642,-14.33846 -49.53286,-29.9804 -69.0853,-44.31886 18.24895,-15.64197 31.28391,-28.67691 44.31888,-45.62237 18.24894,13.03497 36.49789,24.76643 56.05033,36.49789 119.92165,69.08531 183.79295,83.42376 229.41531,3.9105 46.92587,-80.81677 1.30351,-127.74263 -118.61814,-196.82793 -63.87131,-36.49789 -112.10066,-58.65732 -151.20555,-58.65732 -32.58741,0 -58.65734,14.33846 -84.72726,58.65732 -18.24894,-3.91049 -37.80138,-11.73146 -49.53285,-32.5874 29.98041,-54.74684 78.20978,-86.03074 131.6531,-86.03074 z m -275.03767,31.2839 c 1.3035,22.15944 3.91048,43.01538 9.12447,63.87131 -14.33846,6.51749 -26.06992,13.03496 -43.01538,23.46293 -117.31464,72.99579 -165.544013,116.01116 -118.61815,196.82793 45.62237,79.51326 109.49368,65.17481 229.41533,-3.9105 86.03074,-48.22936 145.99157,-106.88667 145.99157,-148.59856 0,-10.42796 -3.9105,-19.55244 -7.82097,-24.76641 9.12447,-19.55246 24.76641,-35.19441 41.71187,-43.01539 18.24893,15.64197 27.37342,29.98042 27.37342,59.96082 0,79.51327 -88.63774,160.33004 -175.97198,209.86288 C 235.38448,908.91265 157.17472,903.69867 93.303397,794.20499 28.128609,682.10432 63.322997,610.41203 231.474,513.95332 c 24.76642,-14.33846 44.31887,-24.76644 65.17481,-33.89091 z"
       sodipodi:nodetypes="ssccsssccsssccccccccsccscccccsccscccc" />
  </g>
</svg>
